<?xml version="1.0" encoding="utf-8"?>
<!-- Generator: Adobe Illustrator 15.0.0, SVG Export Plug-In . SVG Version: 6.00 Build 0)  -->
<!DOCTYPE svg PUBLIC "-//W3C//DTD SVG 1.1//EN" "http://www.w3.org/Graphics/SVG/1.1/DTD/svg11.dtd">
<svg version="1.1" id="Слой_1" xmlns="http://www.w3.org/2000/svg" xmlns:xlink="http://www.w3.org/1999/xlink" x="0px" y="0px"
	 width="612px" height="792px" viewBox="0 0 612 792" enable-background="new 0 0 612 792" xml:space="preserve">
<path fill-rule="evenodd" clip-rule="evenodd" fill="#FF2400" d="M365.926,218.506h240.875v12.51
	c-8.567,39.914-59.293,73.264-128.233,87.854c74.888,16.213,127.772,54.661,128.001,99.364H362.145
	c19.223-10.115,30.416-22.16,30.416-34.974c0-35.746-85.617-64.776-190.459-64.776c-3.628,0-7.181,0-10.73,0.079v99.361H5V218.199
	h186.371v94.188c1.465,0.079,3.01,0.079,4.554,0.079c104.843,0,190.46-29.108,190.46-64.851
	C386.385,237.192,378.975,227.31,365.926,218.506L365.926,218.506z M365.926,218.506"/>
<path fill="#002400" d="M22.625,554.497v-24.799l13.606-13.715l22.847,38.514h21.713l-32.994-50.103l31.293-31.964H56.527
	l-33.901,36.442v-36.442H5.845v82.066H22.625L22.625,554.497z M117.999,507.39c1.587-1.1,3.798-1.651,6.632-1.651
	c4.195,0,7.049,0.645,8.561,1.931c1.511,1.288,2.268,3.443,2.268,6.466v1.567c-2.873,1.195-8.031,2.483-15.477,3.863
	c-5.519,1.045-9.742,2.268-12.67,3.667c-2.929,1.399-5.207,3.414-6.832,6.046c-1.625,2.631-2.437,5.626-2.437,8.984
	c0,5.075,1.786,9.274,5.357,12.596c3.572,3.322,8.456,4.982,14.655,4.982c3.515,0,6.821-0.653,9.921-1.96
	c3.098-1.306,6.009-3.265,8.73-5.877c0.113,0.298,0.302,0.914,0.567,1.847c0.604,2.053,1.114,3.602,1.53,4.646h15.76
	c-1.398-2.836-2.353-5.494-2.863-7.978c-0.51-2.48-0.765-6.334-0.765-11.56l0.17-18.361c0-6.829-0.708-11.522-2.126-14.079
	s-3.865-4.665-7.342-6.326c-3.477-1.66-8.768-2.491-15.874-2.491c-7.823,0-13.719,1.382-17.687,4.144
	c-3.969,2.762-6.766,7.016-8.391,12.764l14.456,2.574C115.126,510.422,116.412,508.491,117.999,507.39L117.999,507.39z
	 M135.46,529.082c0,3.77-0.208,6.325-0.624,7.669c-0.604,2.053-1.871,3.789-3.798,5.207c-2.608,1.866-5.349,2.799-8.221,2.799
	c-2.57,0-4.687-0.803-6.349-2.408c-1.664-1.604-2.495-3.507-2.495-5.709c0-2.239,1.039-4.087,3.118-5.542
	c1.361-0.896,4.251-1.81,8.673-2.743c4.422-0.933,7.654-1.735,9.695-2.407V529.082L135.46,529.082z"/>
<path fill="#002400" d="M206.283,554.497l10.205-38.234l10.374,38.234h15.307l19.332-59.451h-15.704l-11.508,38.962l-10.035-38.962
	h-15.363l-10.375,38.962l-11.282-38.962h-15.477l19.048,59.451H206.283L206.283,554.497z M304.227,507.39
	c1.588-1.1,3.799-1.651,6.633-1.651c4.195,0,7.049,0.645,8.561,1.931c1.512,1.288,2.268,3.443,2.268,6.466v1.567
	c-2.872,1.195-8.031,2.483-15.477,3.863c-5.519,1.045-9.742,2.268-12.67,3.667c-2.929,1.399-5.207,3.414-6.832,6.046
	c-1.625,2.631-2.438,5.626-2.438,8.984c0,5.075,1.786,9.274,5.357,12.596c3.571,3.322,8.456,4.982,14.654,4.982
	c3.516,0,6.822-0.653,9.921-1.96c3.099-1.306,6.01-3.265,8.731-5.877c0.112,0.298,0.301,0.914,0.566,1.847
	c0.604,2.053,1.114,3.602,1.53,4.646h15.76c-1.397-2.836-2.353-5.494-2.862-7.978c-0.51-2.48-0.766-6.334-0.766-11.56l0.17-18.361
	c0-6.829-0.709-11.522-2.125-14.079c-1.418-2.557-3.865-4.665-7.343-6.326c-3.476-1.66-8.768-2.491-15.872-2.491
	c-7.824,0-13.72,1.382-17.688,4.144c-3.969,2.762-6.766,7.016-8.391,12.764l14.456,2.574
	C301.354,510.422,302.639,508.491,304.227,507.39L304.227,507.39z M321.688,529.082c0,3.77-0.207,6.325-0.624,7.669
	c-0.604,2.053-1.87,3.789-3.798,5.207c-2.607,1.866-5.348,2.799-8.22,2.799c-2.571,0-4.687-0.803-6.35-2.408
	c-1.664-1.604-2.495-3.507-2.495-5.709c0-2.239,1.04-4.087,3.119-5.542c1.359-0.896,4.252-1.81,8.674-2.743
	c4.422-0.933,7.652-1.735,9.693-2.407V529.082L321.688,529.082z"/>
<path fill="#002400" d="M369.115,550.915c4.779,3.284,11.271,4.926,19.474,4.926c9.032,0,15.853-1.96,20.465-5.879
	c4.611-3.918,6.917-8.602,6.917-14.05c0-5.001-1.664-8.901-4.989-11.7c-3.365-2.762-9.288-5.094-17.773-6.998
	c-8.485-1.902-13.444-3.377-14.88-4.422c-1.06-0.784-1.589-1.735-1.589-2.854c0-1.307,0.605-2.37,1.814-3.191
	c1.813-1.156,4.819-1.735,9.015-1.735c3.325,0,5.887,0.615,7.681,1.848c1.795,1.23,3.015,3.004,3.657,5.318l15.022-2.744
	c-1.512-5.187-4.271-9.105-8.276-11.755c-4.006-2.649-10.129-3.976-18.368-3.976c-8.655,0-15.042,1.755-19.162,5.263
	c-4.118,3.509-6.179,7.838-6.179,12.987c0,5.71,2.381,10.17,7.143,13.379c3.438,2.314,11.584,4.87,24.435,7.67
	c2.759,0.635,4.534,1.324,5.329,2.071c0.756,0.783,1.134,1.772,1.134,2.967c0,1.754-0.7,3.154-2.098,4.198
	c-2.079,1.493-5.179,2.239-9.297,2.239c-3.743,0-6.653-0.792-8.731-2.379c-2.078-1.586-3.457-3.909-4.138-6.97l-15.986,2.407
	C361.207,543.171,364.333,547.631,369.115,550.915L369.115,550.915z M451.946,507.39c1.587-1.1,3.798-1.651,6.632-1.651
	c4.196,0,7.049,0.645,8.561,1.931c1.512,1.288,2.268,3.443,2.268,6.466v1.567c-2.872,1.195-8.03,2.483-15.476,3.863
	c-5.52,1.045-9.742,2.268-12.671,3.667c-2.93,1.399-5.207,3.414-6.831,6.046c-1.626,2.631-2.438,5.626-2.438,8.984
	c0,5.075,1.785,9.274,5.357,12.596c3.57,3.322,8.454,4.982,14.654,4.982c3.515,0,6.821-0.653,9.921-1.96
	c3.098-1.306,6.009-3.265,8.729-5.877c0.114,0.298,0.303,0.914,0.567,1.847c0.604,2.053,1.114,3.602,1.531,4.646h15.76
	c-1.398-2.836-2.353-5.494-2.863-7.978c-0.51-2.48-0.765-6.334-0.765-11.56l0.169-18.361c0-6.829-0.708-11.522-2.125-14.079
	s-3.864-4.665-7.342-6.326c-3.479-1.66-8.769-2.491-15.873-2.491c-7.823,0-13.719,1.382-17.688,4.144s-6.767,7.016-8.391,12.764
	l14.456,2.574C449.073,510.422,450.358,508.491,451.946,507.39L451.946,507.39z M469.406,529.082c0,3.77-0.208,6.325-0.623,7.669
	c-0.604,2.053-1.871,3.789-3.799,5.207c-2.607,1.866-5.348,2.799-8.22,2.799c-2.571,0-4.687-0.803-6.35-2.408
	c-1.663-1.604-2.494-3.507-2.494-5.709c0-2.239,1.039-4.087,3.118-5.542c1.36-0.896,4.252-1.81,8.674-2.743
	c4.421-0.933,7.652-1.735,9.693-2.407V529.082L469.406,529.082z"/>
<path fill="#002400" d="M528.775,554.497v-19.033l7.427-7.67l15.136,26.703h17.178l-22.053-37.73l20.58-21.721h-19.616
	l-18.651,20.938v-43.553h-15.93v82.066H528.775L528.775,554.497z M606.801,486.985v-14.555h-15.93v14.555H606.801L606.801,486.985z
	 M606.801,554.497v-59.451h-15.93v59.451H606.801L606.801,554.497z"/>
</svg>
